ISO-10303-21;
HEADER;
/* Generated by software containing ST-Developer
 * from STEP Tools, Inc. (www.steptools.com) 
 */

FILE_DESCRIPTION(
/* description */ (''),
/* implementation_level */ '2;1');

FILE_NAME(
/* name */ 'encodermagnetspacer.step',
/* time_stamp */ '2026-09-06T16:32:30+02:00',
/* author */ (''),
/* organization */ (''),
/* preprocessor_version */ 'ST-DEVELOPER v20.1',
/* originating_system */ 'Autodesk Translation Framework v15.8.0.0',
/* authorisation */ '');

FILE_SCHEMA (('AUTOMOTIVE_DESIGN { 1 0 10303 214 3 1 1 }'));
ENDSEC;

DATA;
#10=MECHANICAL_DESIGN_GEOMETRIC_PRESENTATION_REPRESENTATION('',(#17),#504);
#11=ITEM_DEFINED_TRANSFORMATION($,$,#320,#338);
#12=(
REPRESENTATION_RELATIONSHIP($,$,#515,#514)
REPRESENTATION_RELATIONSHIP_WITH_TRANSFORMATION(#11)
SHAPE_REPRESENTATION_RELATIONSHIP()
);
#13=CONTEXT_DEPENDENT_SHAPE_REPRESENTATION(#12,#513);
#14=NEXT_ASSEMBLY_USAGE_OCCURRENCE('Component1:1','Component1:1',
'Component1:1',#517,#518,'Component1:1');
#15=SHAPE_REPRESENTATION_RELATIONSHIP('SRR','None',#515,#16);
#16=ADVANCED_BREP_SHAPE_REPRESENTATION('',(#18),#503);
#17=STYLED_ITEM('',(#529),#18);
#18=MANIFOLD_SOLID_BREP('Body1',#306);
#19=CIRCLE('',#332,0.21585);
#20=CIRCLE('',#333,0.21585);
#21=CYLINDRICAL_SURFACE('',#331,0.21585);
#22=FACE_BOUND('',#42,.T.);
#23=FACE_BOUND('',#55,.T.);
#24=FACE_BOUND('',#56,.T.);
#25=FACE_BOUND('',#59,.T.);
#26=FACE_OUTER_BOUND('',#41,.T.);
#27=FACE_OUTER_BOUND('',#43,.T.);
#28=FACE_OUTER_BOUND('',#44,.T.);
#29=FACE_OUTER_BOUND('',#45,.T.);
#30=FACE_OUTER_BOUND('',#46,.T.);
#31=FACE_OUTER_BOUND('',#47,.T.);
#32=FACE_OUTER_BOUND('',#48,.T.);
#33=FACE_OUTER_BOUND('',#49,.T.);
#34=FACE_OUTER_BOUND('',#50,.T.);
#35=FACE_OUTER_BOUND('',#51,.T.);
#36=FACE_OUTER_BOUND('',#52,.T.);
#37=FACE_OUTER_BOUND('',#53,.T.);
#38=FACE_OUTER_BOUND('',#54,.T.);
#39=FACE_OUTER_BOUND('',#57,.T.);
#40=FACE_OUTER_BOUND('',#58,.T.);
#41=EDGE_LOOP('',(#199,#200,#201,#202,#203,#204,#205,#206));
#42=EDGE_LOOP('',(#207,#208,#209,#210));
#43=EDGE_LOOP('',(#211,#212,#213,#214));
#44=EDGE_LOOP('',(#215,#216,#217,#218));
#45=EDGE_LOOP('',(#219,#220,#221,#222));
#46=EDGE_LOOP('',(#223,#224,#225,#226));
#47=EDGE_LOOP('',(#227,#228,#229,#230));
#48=EDGE_LOOP('',(#231,#232,#233,#234));
#49=EDGE_LOOP('',(#235,#236,#237,#238));
#50=EDGE_LOOP('',(#239,#240,#241,#242,#243,#244,#245,#246));
#51=EDGE_LOOP('',(#247,#248,#249,#250));
#52=EDGE_LOOP('',(#251,#252,#253,#254));
#53=EDGE_LOOP('',(#255,#256,#257,#258));
#54=EDGE_LOOP('',(#259,#260,#261,#262));
#55=EDGE_LOOP('',(#263,#264,#265,#266));
#56=EDGE_LOOP('',(#267));
#57=EDGE_LOOP('',(#268,#269,#270,#271));
#58=EDGE_LOOP('',(#272,#273,#274,#275));
#59=EDGE_LOOP('',(#276));
#60=LINE('',#421,#97);
#61=LINE('',#423,#98);
#62=LINE('',#425,#99);
#63=LINE('',#427,#100);
#64=LINE('',#429,#101);
#65=LINE('',#431,#102);
#66=LINE('',#433,#103);
#67=LINE('',#434,#104);
#68=LINE('',#437,#105);
#69=LINE('',#439,#106);
#70=LINE('',#441,#107);
#71=LINE('',#442,#108);
#72=LINE('',#446,#109);
#73=LINE('',#447,#110);
#74=LINE('',#448,#111);
#75=LINE('',#451,#112);
#76=LINE('',#452,#113);
#77=LINE('',#455,#114);
#78=LINE('',#456,#115);
#79=LINE('',#458,#116);
#80=LINE('',#461,#117);
#81=LINE('',#463,#118);
#82=LINE('',#464,#119);
#83=LINE('',#467,#120);
#84=LINE('',#468,#121);
#85=LINE('',#471,#122);
#86=LINE('',#472,#123);
#87=LINE('',#475,#124);
#88=LINE('',#477,#125);
#89=LINE('',#478,#126);
#90=LINE('',#479,#127);
#91=LINE('',#482,#128);
#92=LINE('',#483,#129);
#93=LINE('',#488,#130);
#94=LINE('',#492,#131);
#95=LINE('',#493,#132);
#96=LINE('',#496,#133);
#97=VECTOR('',#345,1.);
#98=VECTOR('',#346,1.);
#99=VECTOR('',#347,1.);
#100=VECTOR('',#348,0.225);
#101=VECTOR('',#349,0.28);
#102=VECTOR('',#350,0.225);
#103=VECTOR('',#351,0.28);
#104=VECTOR('',#352,0.225);
#105=VECTOR('',#353,1.);
#106=VECTOR('',#354,1.);
#107=VECTOR('',#355,1.);
#108=VECTOR('',#356,1.);
#109=VECTOR('',#359,1.);
#110=VECTOR('',#360,0.0934183333333334);
#111=VECTOR('',#361,0.0934183333333333);
#112=VECTOR('',#364,1.);
#113=VECTOR('',#365,0.0934183333333333);
#114=VECTOR('',#368,1.);
#115=VECTOR('',#369,0.0934183333333334);
#116=VECTOR('',#372,1.);
#117=VECTOR('',#375,0.03);
#118=VECTOR('',#376,0.225);
#119=VECTOR('',#377,0.03);
#120=VECTOR('',#380,0.28);
#121=VECTOR('',#381,0.03);
#122=VECTOR('',#384,0.28);
#123=VECTOR('',#385,0.03);
#124=VECTOR('',#388,0.085);
#125=VECTOR('',#389,0.1);
#126=VECTOR('',#390,0.085);
#127=VECTOR('',#391,0.225);
#128=VECTOR('',#394,0.085);
#129=VECTOR('',#395,0.035);
#130=VECTOR('',#400,0.21585);
#131=VECTOR('',#405,0.085);
#132=VECTOR('',#406,0.1);
#133=VECTOR('',#411,0.035);
#134=VERTEX_POINT('',#419);
#135=VERTEX_POINT('',#420);
#136=VERTEX_POINT('',#422);
#137=VERTEX_POINT('',#424);
#138=VERTEX_POINT('',#426);
#139=VERTEX_POINT('',#428);
#140=VERTEX_POINT('',#430);
#141=VERTEX_POINT('',#432);
#142=VERTEX_POINT('',#435);
#143=VERTEX_POINT('',#436);
#144=VERTEX_POINT('',#438);
#145=VERTEX_POINT('',#440);
#146=VERTEX_POINT('',#444);
#147=VERTEX_POINT('',#445);
#148=VERTEX_POINT('',#450);
#149=VERTEX_POINT('',#454);
#150=VERTEX_POINT('',#460);
#151=VERTEX_POINT('',#462);
#152=VERTEX_POINT('',#466);
#153=VERTEX_POINT('',#470);
#154=VERTEX_POINT('',#474);
#155=VERTEX_POINT('',#476);
#156=VERTEX_POINT('',#481);
#157=VERTEX_POINT('',#485);
#158=VERTEX_POINT('',#487);
#159=VERTEX_POINT('',#491);
#160=EDGE_CURVE('',#134,#135,#60,.T.);
#161=EDGE_CURVE('',#136,#134,#61,.T.);
#162=EDGE_CURVE('',#137,#136,#62,.T.);
#163=EDGE_CURVE('',#138,#137,#63,.T.);
#164=EDGE_CURVE('',#138,#139,#64,.T.);
#165=EDGE_CURVE('',#140,#139,#65,.T.);
#166=EDGE_CURVE('',#141,#140,#66,.T.);
#167=EDGE_CURVE('',#135,#141,#67,.T.);
#168=EDGE_CURVE('',#142,#143,#68,.T.);
#169=EDGE_CURVE('',#143,#144,#69,.T.);
#170=EDGE_CURVE('',#144,#145,#70,.T.);
#171=EDGE_CURVE('',#145,#142,#71,.T.);
#172=EDGE_CURVE('',#146,#147,#72,.T.);
#173=EDGE_CURVE('',#145,#146,#73,.T.);
#174=EDGE_CURVE('',#147,#144,#74,.T.);
#175=EDGE_CURVE('',#147,#148,#75,.T.);
#176=EDGE_CURVE('',#143,#148,#76,.T.);
#177=EDGE_CURVE('',#148,#149,#77,.T.);
#178=EDGE_CURVE('',#149,#142,#78,.T.);
#179=EDGE_CURVE('',#149,#146,#79,.T.);
#180=EDGE_CURVE('',#139,#150,#80,.T.);
#181=EDGE_CURVE('',#150,#151,#81,.T.);
#182=EDGE_CURVE('',#151,#140,#82,.T.);
#183=EDGE_CURVE('',#152,#151,#83,.T.);
#184=EDGE_CURVE('',#141,#152,#84,.T.);
#185=EDGE_CURVE('',#153,#150,#85,.T.);
#186=EDGE_CURVE('',#153,#138,#86,.T.);
#187=EDGE_CURVE('',#137,#154,#87,.T.);
#188=EDGE_CURVE('',#154,#155,#88,.T.);
#189=EDGE_CURVE('',#155,#135,#89,.T.);
#190=EDGE_CURVE('',#152,#153,#90,.T.);
#191=EDGE_CURVE('',#156,#136,#91,.T.);
#192=EDGE_CURVE('',#154,#156,#92,.T.);
#193=EDGE_CURVE('',#157,#157,#19,.T.);
#194=EDGE_CURVE('',#157,#158,#93,.T.);
#195=EDGE_CURVE('',#158,#158,#20,.T.);
#196=EDGE_CURVE('',#134,#159,#94,.T.);
#197=EDGE_CURVE('',#159,#156,#95,.T.);
#198=EDGE_CURVE('',#155,#159,#96,.T.);
#199=ORIENTED_EDGE('',*,*,#160,.F.);
#200=ORIENTED_EDGE('',*,*,#161,.F.);
#201=ORIENTED_EDGE('',*,*,#162,.F.);
#202=ORIENTED_EDGE('',*,*,#163,.F.);
#203=ORIENTED_EDGE('',*,*,#164,.T.);
#204=ORIENTED_EDGE('',*,*,#165,.F.);
#205=ORIENTED_EDGE('',*,*,#166,.F.);
#206=ORIENTED_EDGE('',*,*,#167,.F.);
#207=ORIENTED_EDGE('',*,*,#168,.T.);
#208=ORIENTED_EDGE('',*,*,#169,.T.);
#209=ORIENTED_EDGE('',*,*,#170,.T.);
#210=ORIENTED_EDGE('',*,*,#171,.T.);
#211=ORIENTED_EDGE('',*,*,#172,.F.);
#212=ORIENTED_EDGE('',*,*,#173,.F.);
#213=ORIENTED_EDGE('',*,*,#170,.F.);
#214=ORIENTED_EDGE('',*,*,#174,.F.);
#215=ORIENTED_EDGE('',*,*,#175,.F.);
#216=ORIENTED_EDGE('',*,*,#174,.T.);
#217=ORIENTED_EDGE('',*,*,#169,.F.);
#218=ORIENTED_EDGE('',*,*,#176,.T.);
#219=ORIENTED_EDGE('',*,*,#177,.F.);
#220=ORIENTED_EDGE('',*,*,#176,.F.);
#221=ORIENTED_EDGE('',*,*,#168,.F.);
#222=ORIENTED_EDGE('',*,*,#178,.F.);
#223=ORIENTED_EDGE('',*,*,#179,.F.);
#224=ORIENTED_EDGE('',*,*,#178,.T.);
#225=ORIENTED_EDGE('',*,*,#171,.F.);
#226=ORIENTED_EDGE('',*,*,#173,.T.);
#227=ORIENTED_EDGE('',*,*,#180,.T.);
#228=ORIENTED_EDGE('',*,*,#181,.T.);
#229=ORIENTED_EDGE('',*,*,#182,.T.);
#230=ORIENTED_EDGE('',*,*,#165,.T.);
#231=ORIENTED_EDGE('',*,*,#166,.T.);
#232=ORIENTED_EDGE('',*,*,#182,.F.);
#233=ORIENTED_EDGE('',*,*,#183,.F.);
#234=ORIENTED_EDGE('',*,*,#184,.F.);
#235=ORIENTED_EDGE('',*,*,#185,.T.);
#236=ORIENTED_EDGE('',*,*,#180,.F.);
#237=ORIENTED_EDGE('',*,*,#164,.F.);
#238=ORIENTED_EDGE('',*,*,#186,.F.);
#239=ORIENTED_EDGE('',*,*,#187,.T.);
#240=ORIENTED_EDGE('',*,*,#188,.T.);
#241=ORIENTED_EDGE('',*,*,#189,.T.);
#242=ORIENTED_EDGE('',*,*,#167,.T.);
#243=ORIENTED_EDGE('',*,*,#184,.T.);
#244=ORIENTED_EDGE('',*,*,#190,.T.);
#245=ORIENTED_EDGE('',*,*,#186,.T.);
#246=ORIENTED_EDGE('',*,*,#163,.T.);
#247=ORIENTED_EDGE('',*,*,#162,.T.);
#248=ORIENTED_EDGE('',*,*,#191,.F.);
#249=ORIENTED_EDGE('',*,*,#192,.F.);
#250=ORIENTED_EDGE('',*,*,#187,.F.);
#251=ORIENTED_EDGE('',*,*,#193,.F.);
#252=ORIENTED_EDGE('',*,*,#194,.T.);
#253=ORIENTED_EDGE('',*,*,#195,.F.);
#254=ORIENTED_EDGE('',*,*,#194,.F.);
#255=ORIENTED_EDGE('',*,*,#161,.T.);
#256=ORIENTED_EDGE('',*,*,#196,.T.);
#257=ORIENTED_EDGE('',*,*,#197,.T.);
#258=ORIENTED_EDGE('',*,*,#191,.T.);
#259=ORIENTED_EDGE('',*,*,#190,.F.);
#260=ORIENTED_EDGE('',*,*,#183,.T.);
#261=ORIENTED_EDGE('',*,*,#181,.F.);
#262=ORIENTED_EDGE('',*,*,#185,.F.);
#263=ORIENTED_EDGE('',*,*,#177,.T.);
#264=ORIENTED_EDGE('',*,*,#179,.T.);
#265=ORIENTED_EDGE('',*,*,#172,.T.);
#266=ORIENTED_EDGE('',*,*,#175,.T.);
#267=ORIENTED_EDGE('',*,*,#193,.T.);
#268=ORIENTED_EDGE('',*,*,#160,.T.);
#269=ORIENTED_EDGE('',*,*,#189,.F.);
#270=ORIENTED_EDGE('',*,*,#198,.T.);
#271=ORIENTED_EDGE('',*,*,#196,.F.);
#272=ORIENTED_EDGE('',*,*,#192,.T.);
#273=ORIENTED_EDGE('',*,*,#197,.F.);
#274=ORIENTED_EDGE('',*,*,#198,.F.);
#275=ORIENTED_EDGE('',*,*,#188,.F.);
#276=ORIENTED_EDGE('',*,*,#195,.T.);
#277=PLANE('',#321);
#278=PLANE('',#322);
#279=PLANE('',#323);
#280=PLANE('',#324);
#281=PLANE('',#325);
#282=PLANE('',#326);
#283=PLANE('',#327);
#284=PLANE('',#328);
#285=PLANE('',#329);
#286=PLANE('',#330);
#287=PLANE('',#334);
#288=PLANE('',#335);
#289=PLANE('',#336);
#290=PLANE('',#337);
#291=ADVANCED_FACE('',(#26,#22),#277,.F.);
#292=ADVANCED_FACE('',(#27),#278,.F.);
#293=ADVANCED_FACE('',(#28),#279,.T.);
#294=ADVANCED_FACE('',(#29),#280,.T.);
#295=ADVANCED_FACE('',(#30),#281,.T.);
#296=ADVANCED_FACE('',(#31),#282,.F.);
#297=ADVANCED_FACE('',(#32),#283,.F.);
#298=ADVANCED_FACE('',(#33),#284,.F.);
#299=ADVANCED_FACE('',(#34),#285,.T.);
#300=ADVANCED_FACE('',(#35),#286,.F.);
#301=ADVANCED_FACE('',(#36),#21,.F.);
#302=ADVANCED_FACE('',(#37),#287,.F.);
#303=ADVANCED_FACE('',(#38,#23,#24),#288,.F.);
#304=ADVANCED_FACE('',(#39),#289,.F.);
#305=ADVANCED_FACE('',(#40,#25),#290,.F.);
#306=CLOSED_SHELL('',(#291,#292,#293,#294,#295,#296,#297,#298,#299,#300,
#301,#302,#303,#304,#305));
#307=DERIVED_UNIT_ELEMENT(#309,1.);
#308=DERIVED_UNIT_ELEMENT(#506,-3.);
#309=(
MASS_UNIT()
NAMED_UNIT(*)
SI_UNIT(.KILO.,.GRAM.)
);
#310=DERIVED_UNIT((#307,#308));
#311=MEASURE_REPRESENTATION_ITEM('density measure',
POSITIVE_RATIO_MEASURE(7850.),#310);
#312=PROPERTY_DEFINITION_REPRESENTATION(#317,#314);
#313=PROPERTY_DEFINITION_REPRESENTATION(#318,#315);
#314=REPRESENTATION('material name',(#316),#503);
#315=REPRESENTATION('density',(#311),#503);
#316=DESCRIPTIVE_REPRESENTATION_ITEM('Steel','Steel');
#317=PROPERTY_DEFINITION('material property','material name',#518);
#318=PROPERTY_DEFINITION('material property','density of part',#518);
#319=AXIS2_PLACEMENT_3D('',#416,#339,#340);
#320=AXIS2_PLACEMENT_3D('',#417,#341,#342);
#321=AXIS2_PLACEMENT_3D('',#418,#343,#344);
#322=AXIS2_PLACEMENT_3D('',#443,#357,#358);
#323=AXIS2_PLACEMENT_3D('',#449,#362,#363);
#324=AXIS2_PLACEMENT_3D('',#453,#366,#367);
#325=AXIS2_PLACEMENT_3D('',#457,#370,#371);
#326=AXIS2_PLACEMENT_3D('',#459,#373,#374);
#327=AXIS2_PLACEMENT_3D('',#465,#378,#379);
#328=AXIS2_PLACEMENT_3D('',#469,#382,#383);
#329=AXIS2_PLACEMENT_3D('',#473,#386,#387);
#330=AXIS2_PLACEMENT_3D('',#480,#392,#393);
#331=AXIS2_PLACEMENT_3D('',#484,#396,#397);
#332=AXIS2_PLACEMENT_3D('',#486,#398,#399);
#333=AXIS2_PLACEMENT_3D('',#489,#401,#402);
#334=AXIS2_PLACEMENT_3D('',#490,#403,#404);
#335=AXIS2_PLACEMENT_3D('',#494,#407,#408);
#336=AXIS2_PLACEMENT_3D('',#495,#409,#410);
#337=AXIS2_PLACEMENT_3D('',#497,#412,#413);
#338=AXIS2_PLACEMENT_3D('',#498,#414,#415);
#339=DIRECTION('axis',(0.,0.,1.));
#340=DIRECTION('refdir',(1.,0.,0.));
#341=DIRECTION('axis',(0.,0.,1.));
#342=DIRECTION('refdir',(1.,0.,0.));
#343=DIRECTION('center_axis',(0.,-2.28605212777606E-16,-1.));
#344=DIRECTION('ref_axis',(-1.,0.,0.));
#345=DIRECTION('',(0.,-1.,2.28605212777606E-16));
#346=DIRECTION('',(-1.,0.,0.));
#347=DIRECTION('',(0.,1.,-2.28605212777606E-16));
#348=DIRECTION('',(-1.,0.,0.));
#349=DIRECTION('',(0.,1.,-2.28605212777606E-16));
#350=DIRECTION('',(1.,0.,0.));
#351=DIRECTION('',(0.,1.,-2.28605212777606E-16));
#352=DIRECTION('',(-1.,0.,0.));
#353=DIRECTION('',(6.12805221333445E-17,1.,-2.28605212777606E-16));
#354=DIRECTION('',(1.,-6.1184195664914E-17,1.39870260686044E-32));
#355=DIRECTION('',(-6.12805221333445E-17,-1.,2.28605212777606E-16));
#356=DIRECTION('',(-1.,6.1184195664914E-17,-1.39870260686044E-32));
#357=DIRECTION('center_axis',(1.,-6.12805221333445E-17,4.26608643498807E-17));
#358=DIRECTION('ref_axis',(4.26608643498807E-17,0.,-1.));
#359=DIRECTION('',(6.12805221333445E-17,1.,-2.28605212777606E-16));
#360=DIRECTION('',(4.26608643498807E-17,-2.21958018411847E-16,-1.));
#361=DIRECTION('',(-4.26608643498807E-17,2.21958018411847E-16,1.));
#362=DIRECTION('center_axis',(-6.1184195664914E-17,-1.,2.21958018411847E-16));
#363=DIRECTION('ref_axis',(0.,-2.21958018411847E-16,-1.));
#364=DIRECTION('',(-1.,6.1184195664914E-17,-1.39870260686044E-32));
#365=DIRECTION('',(4.26608643498807E-17,-2.21958018411847E-16,-1.));
#366=DIRECTION('center_axis',(1.,-6.12805221333445E-17,4.26608643498807E-17));
#367=DIRECTION('ref_axis',(4.26608643498807E-17,0.,-1.));
#368=DIRECTION('',(-6.12805221333445E-17,-1.,2.28605212777606E-16));
#369=DIRECTION('',(-4.26608643498807E-17,2.21958018411847E-16,1.));
#370=DIRECTION('center_axis',(6.1184195664914E-17,1.,-2.21958018411847E-16));
#371=DIRECTION('ref_axis',(0.,2.21958018411847E-16,1.));
#372=DIRECTION('',(1.,-6.1184195664914E-17,1.39870260686044E-32));
#373=DIRECTION('center_axis',(0.,-1.,7.9354644452713E-16));
#374=DIRECTION('ref_axis',(0.,-7.9354644452713E-16,-1.));
#375=DIRECTION('',(0.,-7.9354644452713E-16,-1.));
#376=DIRECTION('',(-1.,0.,0.));
#377=DIRECTION('',(0.,7.9354644452713E-16,1.));
#378=DIRECTION('center_axis',(1.,0.,0.));
#379=DIRECTION('ref_axis',(0.,0.,-1.));
#380=DIRECTION('',(0.,1.,-2.28605212777606E-16));
#381=DIRECTION('',(0.,-7.9354644452713E-16,-1.));
#382=DIRECTION('center_axis',(-1.,0.,0.));
#383=DIRECTION('ref_axis',(0.,0.,1.));
#384=DIRECTION('',(0.,1.,-2.28605212777606E-16));
#385=DIRECTION('',(0.,7.9354644452713E-16,1.));
#386=DIRECTION('center_axis',(0.,-1.,2.47257921378065E-16));
#387=DIRECTION('ref_axis',(0.,-2.47257921378065E-16,-1.));
#388=DIRECTION('',(0.,2.47257921378065E-16,1.));
#389=DIRECTION('',(-1.,0.,0.));
#390=DIRECTION('',(0.,-2.47257921378065E-16,-1.));
#391=DIRECTION('',(1.,0.,0.));
#392=DIRECTION('center_axis',(-1.,0.,0.));
#393=DIRECTION('ref_axis',(0.,0.,1.));
#394=DIRECTION('',(0.,-2.47257921378065E-16,-1.));
#395=DIRECTION('',(0.,1.,-3.70751716250067E-16));
#396=DIRECTION('center_axis',(0.,1.8805128470342E-16,1.));
#397=DIRECTION('ref_axis',(1.,0.,0.));
#398=DIRECTION('center_axis',(0.,3.70751716250067E-16,1.));
#399=DIRECTION('ref_axis',(1.,0.,0.));
#400=DIRECTION('',(0.,1.8805128470342E-16,1.));
#401=DIRECTION('center_axis',(0.,-3.70751716250067E-16,-1.));
#402=DIRECTION('ref_axis',(1.,0.,0.));
#403=DIRECTION('center_axis',(0.,-1.,2.47257921378065E-16));
#404=DIRECTION('ref_axis',(0.,-2.47257921378065E-16,-1.));
#405=DIRECTION('',(0.,2.47257921378065E-16,1.));
#406=DIRECTION('',(1.,0.,0.));
#407=DIRECTION('center_axis',(0.,3.70751716250067E-16,1.));
#408=DIRECTION('ref_axis',(1.,0.,0.));
#409=DIRECTION('center_axis',(1.,0.,0.));
#410=DIRECTION('ref_axis',(0.,0.,-1.));
#411=DIRECTION('',(0.,1.,-3.70751716250067E-16));
#412=DIRECTION('center_axis',(0.,-3.70751716250067E-16,-1.));
#413=DIRECTION('ref_axis',(-1.,0.,0.));
#414=DIRECTION('',(0.,0.,1.));
#415=DIRECTION('',(1.,0.,0.));
#416=CARTESIAN_POINT('',(0.,0.,0.));
#417=CARTESIAN_POINT('',(0.,0.,0.));
#418=CARTESIAN_POINT('Origin',(18.3,3.9,0.599999999999999));
#419=CARTESIAN_POINT('',(17.3,1.8,0.6));
#420=CARTESIAN_POINT('',(17.3,1.1,0.6));
#421=CARTESIAN_POINT('',(17.3,2.675,0.599999999999999));
#422=CARTESIAN_POINT('',(19.3,1.8,0.6));
#423=CARTESIAN_POINT('',(18.3,1.8,0.6));
#424=CARTESIAN_POINT('',(19.3,1.1,0.6));
#425=CARTESIAN_POINT('',(19.3,2.675,0.599999999999999));
#426=CARTESIAN_POINT('',(20.55,1.1,0.6));
#427=CARTESIAN_POINT('',(18.3,1.1,0.6));
#428=CARTESIAN_POINT('',(20.55,6.7,0.599999999999999));
#429=CARTESIAN_POINT('',(20.55,3.9,0.599999999999999));
#430=CARTESIAN_POINT('',(16.05,6.7,0.599999999999999));
#431=CARTESIAN_POINT('',(18.3,6.7,0.599999999999999));
#432=CARTESIAN_POINT('',(16.05,1.1,0.6));
#433=CARTESIAN_POINT('',(16.05,3.9,0.599999999999999));
#434=CARTESIAN_POINT('',(18.3,1.1,0.6));
#435=CARTESIAN_POINT('',(17.64915,2.41581666666667,0.6));
#436=CARTESIAN_POINT('',(17.64915,5.68418333333334,0.599999999999999));
#437=CARTESIAN_POINT('',(17.64915,3.975,0.599999999999999));
#438=CARTESIAN_POINT('',(18.95085,5.68418333333334,0.599999999999999));
#439=CARTESIAN_POINT('',(18.3,5.68418333333334,0.599999999999999));
#440=CARTESIAN_POINT('',(18.95085,2.41581666666667,0.6));
#441=CARTESIAN_POINT('',(18.95085,3.975,0.599999999999999));
#442=CARTESIAN_POINT('',(18.3,2.41581666666667,0.6));
#443=CARTESIAN_POINT('Origin',(18.95085,4.05,0.933333333333333));
#444=CARTESIAN_POINT('',(18.95085,2.41581666666667,-5.55111512312578E-16));
#445=CARTESIAN_POINT('',(18.95085,5.68418333333334,-1.33226762955019E-15));
#446=CARTESIAN_POINT('',(18.95085,3.975,-8.88178419700125E-16));
#447=CARTESIAN_POINT('',(18.95085,2.41581666666667,0.933333333333333));
#448=CARTESIAN_POINT('',(18.95085,5.68418333333334,0.933333333333332));
#449=CARTESIAN_POINT('Origin',(18.3,5.68418333333334,0.933333333333332));
#450=CARTESIAN_POINT('',(17.64915,5.68418333333334,-1.33226762955019E-15));
#451=CARTESIAN_POINT('',(18.3,5.68418333333334,-1.27675647831893E-15));
#452=CARTESIAN_POINT('',(17.64915,5.68418333333334,0.933333333333332));
#453=CARTESIAN_POINT('Origin',(17.64915,4.05,0.933333333333333));
#454=CARTESIAN_POINT('',(17.64915,2.41581666666667,-5.55111512312578E-16));
#455=CARTESIAN_POINT('',(17.64915,3.975,-8.88178419700125E-16));
#456=CARTESIAN_POINT('',(17.64915,2.41581666666667,0.933333333333333));
#457=CARTESIAN_POINT('Origin',(18.3,2.41581666666667,0.933333333333333));
#458=CARTESIAN_POINT('',(18.3,2.41581666666667,-5.55111512312578E-16));
#459=CARTESIAN_POINT('Origin',(18.3,6.7,0.299999999999999));
#460=CARTESIAN_POINT('',(20.55,6.7,-1.54893119295508E-15));
#461=CARTESIAN_POINT('',(20.55,6.7,0.299999999999999));
#462=CARTESIAN_POINT('',(16.05,6.7,-1.54893119295508E-15));
#463=CARTESIAN_POINT('',(18.3,6.7,-1.54893119295508E-15));
#464=CARTESIAN_POINT('',(16.05,6.7,0.299999999999999));
#465=CARTESIAN_POINT('Origin',(16.05,3.9,0.299999999999999));
#466=CARTESIAN_POINT('',(16.05,1.1,-2.68742001400482E-16));
#467=CARTESIAN_POINT('',(16.05,3.9,-9.0883659717778E-16));
#468=CARTESIAN_POINT('',(16.05,1.1,0.3));
#469=CARTESIAN_POINT('Origin',(20.55,3.9,0.299999999999999));
#470=CARTESIAN_POINT('',(20.55,1.1,-2.68742001400482E-16));
#471=CARTESIAN_POINT('',(20.55,3.9,-9.0883659717778E-16));
#472=CARTESIAN_POINT('',(20.55,1.1,0.3));
#473=CARTESIAN_POINT('Origin',(18.3,1.1,0.85));
#474=CARTESIAN_POINT('',(19.3,1.1,1.7));
#475=CARTESIAN_POINT('',(19.3,1.1,0.85));
#476=CARTESIAN_POINT('',(17.3,1.1,1.7));
#477=CARTESIAN_POINT('',(18.3,1.1,1.7));
#478=CARTESIAN_POINT('',(17.3,1.1,0.85));
#479=CARTESIAN_POINT('',(18.3,1.1,-2.68742001400482E-16));
#480=CARTESIAN_POINT('Origin',(19.3,1.45,0.85));
#481=CARTESIAN_POINT('',(19.3,1.8,1.7));
#482=CARTESIAN_POINT('',(19.3,1.8,0.85));
#483=CARTESIAN_POINT('',(19.3,1.45,1.7));
#484=CARTESIAN_POINT('Origin',(18.3,1.45,-0.000850000000000296));
#485=CARTESIAN_POINT('',(18.08415,1.45,-3.31115343477073E-16));
#486=CARTESIAN_POINT('Origin',(18.3,1.45,-3.31115343477073E-16));
#487=CARTESIAN_POINT('',(18.08415,1.45,1.7));
#488=CARTESIAN_POINT('',(18.08415,1.45,-0.000850000000000296));
#489=CARTESIAN_POINT('Origin',(18.3,1.45,1.7));
#490=CARTESIAN_POINT('Origin',(18.3,1.8,0.85));
#491=CARTESIAN_POINT('',(17.3,1.8,1.7));
#492=CARTESIAN_POINT('',(17.3,1.8,0.85));
#493=CARTESIAN_POINT('',(18.3,1.8,1.7));
#494=CARTESIAN_POINT('Origin',(18.3,1.45,-3.31149528134901E-16));
#495=CARTESIAN_POINT('Origin',(17.3,1.45,0.85));
#496=CARTESIAN_POINT('',(17.3,1.45,1.7));
#497=CARTESIAN_POINT('Origin',(18.3,1.45,1.7));
#498=CARTESIAN_POINT('',(0.,0.,0.));
#499=UNCERTAINTY_MEASURE_WITH_UNIT(LENGTH_MEASURE(0.001),#505,
'DISTANCE_ACCURACY_VALUE',
'Maximum model space distance between geometric entities at asserted c
onnectivities');
#500=UNCERTAINTY_MEASURE_WITH_UNIT(LENGTH_MEASURE(0.001),#505,
'DISTANCE_ACCURACY_VALUE',
'Maximum model space distance between geometric entities at asserted c
onnectivities');
#501=UNCERTAINTY_MEASURE_WITH_UNIT(LENGTH_MEASURE(0.001),#505,
'DISTANCE_ACCURACY_VALUE',
'Maximum model space distance between geometric entities at asserted c
onnectivities');
#502=(
GEOMETRIC_REPRESENTATION_CONTEXT(3)
GLOBAL_UNCERTAINTY_ASSIGNED_CONTEXT((#499))
GLOBAL_UNIT_ASSIGNED_CONTEXT((#505,#507,#508))
REPRESENTATION_CONTEXT('','3D')
);
#503=(
GEOMETRIC_REPRESENTATION_CONTEXT(3)
GLOBAL_UNCERTAINTY_ASSIGNED_CONTEXT((#500))
GLOBAL_UNIT_ASSIGNED_CONTEXT((#505,#507,#508))
REPRESENTATION_CONTEXT('','3D')
);
#504=(
GEOMETRIC_REPRESENTATION_CONTEXT(3)
GLOBAL_UNCERTAINTY_ASSIGNED_CONTEXT((#501))
GLOBAL_UNIT_ASSIGNED_CONTEXT((#505,#507,#508))
REPRESENTATION_CONTEXT('','3D')
);
#505=(
LENGTH_UNIT()
NAMED_UNIT(*)
SI_UNIT(.CENTI.,.METRE.)
);
#506=(
LENGTH_UNIT()
NAMED_UNIT(*)
SI_UNIT($,.METRE.)
);
#507=(
NAMED_UNIT(*)
PLANE_ANGLE_UNIT()
SI_UNIT($,.RADIAN.)
);
#508=(
NAMED_UNIT(*)
SI_UNIT($,.STERADIAN.)
SOLID_ANGLE_UNIT()
);
#509=SHAPE_DEFINITION_REPRESENTATION(#511,#514);
#510=SHAPE_DEFINITION_REPRESENTATION(#512,#515);
#511=PRODUCT_DEFINITION_SHAPE('',$,#517);
#512=PRODUCT_DEFINITION_SHAPE('',$,#518);
#513=PRODUCT_DEFINITION_SHAPE($,$,#14);
#514=SHAPE_REPRESENTATION('',(#319,#338),#502);
#515=SHAPE_REPRESENTATION('',(#320),#503);
#516=PRODUCT_DEFINITION_CONTEXT('part definition',#524,'design');
#517=PRODUCT_DEFINITION('2026-09-06-16-31-28-149','(Unsaved)',#519,#516);
#518=PRODUCT_DEFINITION('2026-09-06-16-31-28-440','Component1',#520,#516);
#519=PRODUCT_DEFINITION_FORMATION('',$,#526);
#520=PRODUCT_DEFINITION_FORMATION('',$,#527);
#521=PRODUCT_RELATED_PRODUCT_CATEGORY('(Unsaved)','(Unsaved)',(#526));
#522=PRODUCT_RELATED_PRODUCT_CATEGORY('Component1','Component1',(#527));
#523=APPLICATION_PROTOCOL_DEFINITION('international standard',
'automotive_design',2009,#524);
#524=APPLICATION_CONTEXT(
'Core Data for Automotive Mechanical Design Process');
#525=PRODUCT_CONTEXT('part definition',#524,'mechanical');
#526=PRODUCT('2026-09-06-16-31-28-149','(Unsaved)',$,(#525));
#527=PRODUCT('2026-09-06-16-31-28-440','Component1',$,(#525));
#528=PRESENTATION_STYLE_ASSIGNMENT((#530));
#529=PRESENTATION_STYLE_ASSIGNMENT((#531));
#530=SURFACE_STYLE_USAGE(.BOTH.,#532);
#531=SURFACE_STYLE_USAGE(.BOTH.,#533);
#532=SURFACE_SIDE_STYLE('',(#534));
#533=SURFACE_SIDE_STYLE('',(#535));
#534=SURFACE_STYLE_FILL_AREA(#536);
#535=SURFACE_STYLE_FILL_AREA(#537);
#536=FILL_AREA_STYLE('Steel - Satin',(#538));
#537=FILL_AREA_STYLE('Base Material - Opaque',(#539));
#538=FILL_AREA_STYLE_COLOUR('Steel - Satin',#540);
#539=FILL_AREA_STYLE_COLOUR('Base Material - Opaque',#541);
#540=COLOUR_RGB('Steel - Satin',0.627450980392157,0.627450980392157,0.627450980392157);
#541=COLOUR_RGB('Base Material - Opaque',0.913725490196078,0.113725490196078,
0.176470588235294);
ENDSEC;
END-ISO-10303-21;
